<?xml version="1.0" standalone="no"?>
<!DOCTYPE svg PUBLIC "-//W3C//DTD SVG 20010904//EN"
 "http://www.w3.org/TR/2001/REC-SVG-20010904/DTD/svg10.dtd">
<svg version="1.0" xmlns="http://www.w3.org/2000/svg"
 width="700.000000pt" height="700.000000pt" viewBox="0 0 700.000000 700.000000"
 preserveAspectRatio="xMidYMid meet">
<metadata>
Created by potrace 1.14, written by Peter Selinger 2001-2017
</metadata>
<g transform="translate(0.000000,700.000000) scale(0.100000,-0.100000)"
fill="#000000" stroke="none">
<path d="M2960 5524 c-173 -18 -291 -39 -458 -80 -405 -99 -652 -256 -676
-430 -11 -80 -7 -2748 4 -2867 25 -259 133 -437 323 -530 149 -73 265 -87 752
-87 417 1 702 13 885 40 937 137 1530 670 1680 1510 31 173 39 553 16 753 -54
465 -213 835 -479 1114 -323 338 -772 529 -1367 583 -157 14 -528 11 -680 -6z
m646 -1402 c43 -63 49 -145 49 -627 0 -388 -3 -460 -18 -524 -21 -93 -45 -121
-102 -121 -76 0 -80 8 -64 151 9 83 14 249 14 504 0 255 -5 421 -14 504 -13
119 -13 125 5 138 11 8 37 13 64 11 37 -3 48 -8 66 -36z"/>
</g>
</svg>
